<?xml version="1.0" encoding="utf-8"?>
<!-- Generator: Adobe Illustrator 23.0.4, SVG Export Plug-In . SVG Version: 6.00 Build 0)  -->
<svg version="1.1" id="Слой_1" xmlns="http://www.w3.org/2000/svg" xmlns:xlink="http://www.w3.org/1999/xlink" x="0px" y="0px"
	 viewBox="0 0 430.9 309" style="enable-background:new 0 0 430.9 309;" xml:space="preserve">
<g>
	<path d="M329.4,205.8c0,2,0,4.1,0,6.2c-0.3,3.5-0.6,7-1.4,10.5c-6.3,26.5-22.4,43.9-48.4,52c-4.2,1.3-8.5,1.8-12.8,2.4
		c-3.6,0-7.2,0-10.8,0c-0.9-0.1-1.9-0.3-2.8-0.4c-12.3-1.5-23.3-6-33.1-13.5c-1-0.8-2.1-1.1-3.4-1.1c-32.8,0-65.6,0-98.4,0
		c-3.5,0-6.6-1-9.4-3.1c-3.6-2.7-5.5-6.4-6.2-10.8c0-66.3,0-132.6,0-198.9c1.2-7.5,5.4-12.1,12.8-13.8c52,0,104,0,156,0
		c7.2,1.5,12.8,7.6,12.7,17.4c-0.2,30.1-0.1,60.2-0.1,90.3c0,1.3,0.4,1.9,1.6,2.4c7.1,2.7,13.6,6.5,19.4,11.5
		c12.4,10.6,20.1,23.9,23.1,39.9C328.9,199.7,329.1,202.7,329.4,205.8z M261.3,261.5c28.3,0.2,52.6-22.7,52.7-52.5
		c0.1-29-23.2-52.8-52.7-52.8c-30.1,0-52.8,24.6-52.7,52.7C208.7,238,232.1,261.5,261.3,261.5z M193.3,95.5c19.5,0,39.1,0,58.6,0
		c1.6,0,1.7,0,1.7-1.7c0-3.9,0-7.8,0-11.7c0-1.1-0.3-1.5-1.5-1.5c-39.1,0-78.3,0-117.4,0c-1.5,0-1.6,0.1-1.6,1.7c0,3.7,0,7.5,0,11.2
		c0,1.9,0,2,2,2C154.5,95.5,173.9,95.5,193.3,95.5z M193.5,126c-19.4,0-38.9,0-58.3,0c-2,0-2,0-2,2.1c0,3.5,0,7,0,10.5
		c0,2.1,0,2.1,2.1,2.1c13.5,0,26.9,0,40.4,0c25.4,0,50.8,0,76.1,0c1.8,0,1.8,0,1.8-1.8c0-3.5,0-7.1,0-10.6c0-2.3,0-2.3-2.2-2.3
		C232.1,126,212.8,126,193.5,126z M168.4,171.3c-11.2,0-22.3,0-33.5,0c-1.6,0-1.8,0.1-1.8,1.8c0,3.6,0,7.2,0,10.8
		c0,2.1,0,2.1,2.1,2.1c15.7,0,31.4,0,47.1,0c4.2,0,8.5,0,12.7,0c1,0,1.5-0.3,1.9-1.2c0.8-1.8,1.8-3.6,2.7-5.4
		c1.2-2.3,2.3-4.6,3.5-6.9c0.5-1,0.2-1.3-0.8-1.2c-0.4,0-0.7,0-1.1,0C190.3,171.3,179.3,171.3,168.4,171.3z M164.7,231.4
		c10,0,20,0,29.9,0c1.5,0,1.6-0.1,1.3-1.5c-0.8-4-1.6-8-2.4-12c-0.2-1-0.6-1.4-1.7-1.4c-19,0-38,0-57,0c-1.5,0-1.6,0.1-1.6,1.6
		c0,3.8,0,7.6,0,11.3c0,1.8,0,1.9,2,1.9C145,231.4,154.8,231.4,164.7,231.4z"/>
	<path d="M226.7,203.9c0.5,0.1,0.7,0.5,1,0.8c6.4,6.4,12.7,12.7,19.1,19.1c1.2,1.2,1.2,1.2,2.4,0c13.4-13.4,26.8-26.8,40.3-40.3
		c1.3-1.3,1.3-1.3,2.6,0c2.9,2.8,5.7,5.7,8.6,8.5c0.8,0.7,0.9,1.2,0,2.1c-17.2,17.2-34.5,34.4-51.7,51.7c-0.8,0.8-1.2,0.7-2,0
		c-10-10.1-20.1-20.1-30.1-30.1c-0.8-0.8-0.9-1.3,0-2.2c3-2.9,5.9-5.9,8.9-8.9C226,204.4,226.3,204,226.7,203.9z"/>
</g>
</svg>
