<?xml version="1.0" encoding="utf-8"?>
<!-- Generator: Adobe Illustrator 23.0.4, SVG Export Plug-In . SVG Version: 6.00 Build 0)  -->
<svg version="1.1" id="Слой_1" xmlns="http://www.w3.org/2000/svg" xmlns:xlink="http://www.w3.org/1999/xlink" x="0px" y="0px"
	 viewBox="0 0 430.9 309" style="enable-background:new 0 0 430.9 309;" xml:space="preserve">
<g>
	<path d="M68.7,167.4c0-38.9,0-77.8,0-116.6c0.5-1.1,0.4-2.3,0.6-3.4c3-19.4,20.4-34.7,40-34.8c47.9-0.1,95.8,0,143.6,0
		c3.8,0,7.5,0.7,11.1,1.7c16.9,5,29.7,21.1,29.6,40.7c-0.2,36,0,72,0,108c0,3.4-0.3,6.8-1.2,10.1c-3.5,13.1-10.9,23.6-21.6,31.9
		c-7.9,6.2-16.8,9.3-27,9.2c-21.5-0.2-43-0.1-64.5-0.1c-2.1,0-4.1-0.1-6.1-0.8c-1.5-0.6-2.8-0.2-4,0.8c-7.2,6-14.4,11.9-21.6,17.8
		c-4.8,3.9-9.6,7.9-14.4,11.8c-3.6,2.9-8.7,1.1-9.6-3.4c-0.2-0.7-0.1-1.4-0.1-2.1c0.1-6.9,0.3-13.8,0.4-20.7
		c0.1-6.3-3.1-10.2-9.3-11.6c-1.8-0.4-3.6-0.5-5.4-0.5c-18.2-0.4-33.9-12.5-39-30C69.6,172.9,69.3,170.1,68.7,167.4z M181.2,74.5
		c-13.1,0-26.1,0-39.2,0c-1.5,0-3,0.2-4.4,0.7c-4.9,2-7.7,7.6-6.6,13.4c1,5.5,5.3,9.1,10.9,9.1c26.2,0,52.5,0,78.7,0
		c1.1,0,2.2-0.1,3.3-0.4c5.1-1.5,8.5-7.1,7.8-12.7c-0.8-6.1-5.1-10.2-10.9-10.2C207.5,74.5,194.3,74.5,181.2,74.5z M169.4,128.7
		c-9.2,0-18.4,0-27.7,0c-1.1,0-2.2,0-3.3,0.3c-4.7,1.5-7,4.9-7.8,9.6c-1,6.5,3.3,13.7,11.5,13.6c18.3-0.2,36.5-0.1,54.9-0.1
		c1.8,0,3.5-0.2,5.1-1c4.6-2.3,7.1-8.2,5.8-13.8c-1.3-5.5-5.3-8.7-10.8-8.7C187.9,128.7,178.7,128.7,169.4,128.7z"/>
	<path d="M363.3,236.5c-0.5,2.5-0.8,5.1-1.6,7.6c-4.4,13.7-16.5,22.8-30.9,23.3c-1.7,0.1-3.4,0.1-5,0.6c-4.1,1.3-6.3,4.2-6.3,8.4
		c0,5.8,0.2,11.6,0.3,17.4c0,1.3-0.2,2.5-1,3.5c-1.7,2.3-4.6,2.6-7,0.6c-5.8-4.9-11.7-9.8-17.5-14.7c-2.7-2.3-5.4-4.5-8.1-6.8
		c-1.1-1-2.4-1.4-3.9-1c-2.8,0.8-5.7,0.7-8.5,0.7c-15.9,0-31.8-0.2-47.6,0.1c-14.8,0.3-25.6-6.3-33.6-18.3c-3.8-5.7-6.1-12-7.2-18.8
		c-0.2-1.3,0.1-1.7,1.5-1.7c26.1,0,52.2,0,78.3,0.1c9.5,0,18.4-1.9,26.5-6.8c15.9-9.7,24.6-23.9,24.9-42.6
		c0.4-21.8,0.1-43.6,0.1-65.4c0-1.5,0.4-1.8,1.8-1.8c4.1,0.1,8.3,0,12.5,0.1c15.6,0.2,29.2,12.1,31.8,27.4c0.2,1.1,0.1,2.2,0.6,3.2
		C363.3,180,363.3,208.2,363.3,236.5z"/>
</g>
</svg>
