<?xml version="1.0" encoding="utf-8"?>
<!-- Generator: Adobe Illustrator 23.0.1, SVG Export Plug-In . SVG Version: 6.00 Build 0)  -->
<svg version="1.1" id="Layer_1" xmlns="http://www.w3.org/2000/svg" xmlns:xlink="http://www.w3.org/1999/xlink" x="0px" y="0px"
	 viewBox="0 0 432.2 98.5" style="enable-background:new 0 0 432.2 98.5;" xml:space="preserve">
<style type="text/css">
	.st0{fill:#FFFFFF;}
</style>
<g id="Page-1_1_">
	<g id="logо_2_main-copy-4" transform="translate(-615.000000, -459.000000)">
		<g id="main-logo-mono-white" transform="translate(615.000000, 459.000000)">
			<path id="Shape-Copy-3" class="st0" d="M9.2,65.8c-3.5-3.5-5.7-8.5-5.7-15.1c0-28.2,41.8-28.2,41.8,0c0,6.6-2.3,11.6-5.7,15.1
				l-6.8-8.5c1.1-1.7,1.8-3.9,1.8-6.7c0-14.6-20.4-14.6-20.4,0c0,2.7,0.7,4.9,1.8,6.6L9.2,65.8z M232.7,39.5v-9.2h30.1v9.2h-10v31.6
				h-10.2V39.5H232.7z M288.9,30.3c16,0,19,19.4,8.5,26.3l8,13.1v1.5h-11.7l-7.1-11.9h-5.3v11.9h-10.5V30.3H288.9z M288.9,49.7
				c5.6,0,5.8-10,0-10.2h-7.5v10.2H288.9z M328.3,29.8h4.6l18.2,39.9v1.5h-10.2l-2.4-5.1h-16l-2.4,5.1h-10.2v-1.5L328.3,29.8z
				 M326.1,57h9.2l-4.6-10.7L326.1,57z M373.5,30.3c26.5,0,26.5,40.8,0,40.8h-15.3V30.3H373.5z M373.5,61.6c12.9,0,12.9-21.9,0-21.9
				h-4.9v21.9H373.5z M413.1,61.9h15.6v9.2h-26V30.3h25.5v9.2h-15.1v5.8H427v9.2h-13.9V61.9z M65.2,30.3v31.4h14.8v9.5H54.8V30.3
				H65.2z M99.8,43.9l7.3-13.6h11.4v1.5l-13.9,22.1v17.3H94.4V53.9L80.8,31.7v-1.5H92l7.3,13.6H99.8z M145.5,47.8L162,30.3h3.6v40.8
				H155V52.9l-8.8,9H145l-8.8-9v18.2h-10.7V30h3.9L145.5,47.8z M195.3,30.3c19.4,0,19.4,30.4,0,30.4h-7.5v10.5h-10.5V30.3H195.3z
				 M195.3,51.2c5.6,0,6.1-11.4,0-11.7h-7.5v11.7H195.3z M24.2,54.1L40,73.6H8.4L24.2,54.1z M130.9,24.9h29.2l-14.6,15.3L130.9,24.9
				z"/>
		</g>
	</g>
</g>
</svg>
